<mxfile host="app.diagrams.net" modified="2021-05-03T06:01:18.290Z" agent="5.0 (Macintosh; Intel Mac OS X 10_15_6) AppleWebKit/537.36 (KHTML, like Gecko) Chrome/89.0.4389.128 Safari/537.36" etag="UMufejSgYXI6G9THvfoT" version="14.6.1" type="github">
  <diagram id="nHeeATuoIYADZ8E5ddwc" name="第 1 页">
    <mxGraphModel dx="1426" dy="769" grid="1" gridSize="10" guides="1" tooltips="1" connect="1" arrows="1" fold="1" page="1" pageScale="1" pageWidth="827" pageHeight="1169" math="0" shadow="0">
      <root>
        <mxCell id="0" />
        <mxCell id="1" parent="0" />
        <mxCell id="NA8Jh0G1h_MKNVJIY8wz-1" value="商品表" style="whiteSpace=wrap;html=1;align=center;strokeWidth=2;fontSize=15;" parent="1" vertex="1">
          <mxGeometry x="330" y="260" width="100" height="40" as="geometry" />
        </mxCell>
        <mxCell id="NA8Jh0G1h_MKNVJIY8wz-2" value="商品价格" style="ellipse;whiteSpace=wrap;html=1;align=center;strokeWidth=2;fontSize=15;" parent="1" vertex="1">
          <mxGeometry x="400" y="360" width="100" height="40" as="geometry" />
        </mxCell>
        <mxCell id="NA8Jh0G1h_MKNVJIY8wz-3" value="商品描述" style="ellipse;whiteSpace=wrap;html=1;align=center;strokeWidth=2;fontSize=15;" parent="1" vertex="1">
          <mxGeometry x="260" y="360" width="100" height="40" as="geometry" />
        </mxCell>
        <mxCell id="NA8Jh0G1h_MKNVJIY8wz-4" value="商品id" style="ellipse;whiteSpace=wrap;html=1;align=center;strokeWidth=2;fontSize=15;" parent="1" vertex="1">
          <mxGeometry x="330" y="170" width="100" height="40" as="geometry" />
        </mxCell>
        <mxCell id="NA8Jh0G1h_MKNVJIY8wz-5" value="商品名字" style="ellipse;whiteSpace=wrap;html=1;align=center;strokeWidth=2;fontSize=15;" parent="1" vertex="1">
          <mxGeometry x="490" y="260" width="100" height="40" as="geometry" />
        </mxCell>
        <mxCell id="NA8Jh0G1h_MKNVJIY8wz-6" value="商品图片" style="ellipse;whiteSpace=wrap;html=1;align=center;strokeWidth=2;fontSize=15;" parent="1" vertex="1">
          <mxGeometry x="170" y="260" width="100" height="40" as="geometry" />
        </mxCell>
        <mxCell id="NA8Jh0G1h_MKNVJIY8wz-7" value="" style="endArrow=none;html=1;rounded=0;strokeWidth=2;entryX=0.5;entryY=1;entryDx=0;entryDy=0;exitX=0.5;exitY=0;exitDx=0;exitDy=0;fontSize=15;" parent="1" source="NA8Jh0G1h_MKNVJIY8wz-1" target="NA8Jh0G1h_MKNVJIY8wz-4" edge="1">
          <mxGeometry relative="1" as="geometry">
            <mxPoint x="150" y="160" as="sourcePoint" />
            <mxPoint x="310" y="160" as="targetPoint" />
          </mxGeometry>
        </mxCell>
        <mxCell id="NA8Jh0G1h_MKNVJIY8wz-8" value="" style="endArrow=none;html=1;rounded=0;strokeWidth=2;entryX=0;entryY=0.5;entryDx=0;entryDy=0;exitX=1;exitY=0.5;exitDx=0;exitDy=0;fontSize=15;" parent="1" source="NA8Jh0G1h_MKNVJIY8wz-6" target="NA8Jh0G1h_MKNVJIY8wz-1" edge="1">
          <mxGeometry relative="1" as="geometry">
            <mxPoint x="390" y="270" as="sourcePoint" />
            <mxPoint x="390" y="220" as="targetPoint" />
          </mxGeometry>
        </mxCell>
        <mxCell id="NA8Jh0G1h_MKNVJIY8wz-9" value="" style="endArrow=none;html=1;rounded=0;strokeWidth=2;entryX=1;entryY=0.5;entryDx=0;entryDy=0;exitX=0;exitY=0.5;exitDx=0;exitDy=0;fontSize=15;" parent="1" source="NA8Jh0G1h_MKNVJIY8wz-5" target="NA8Jh0G1h_MKNVJIY8wz-1" edge="1">
          <mxGeometry relative="1" as="geometry">
            <mxPoint x="400" y="280" as="sourcePoint" />
            <mxPoint x="400" y="230" as="targetPoint" />
          </mxGeometry>
        </mxCell>
        <mxCell id="NA8Jh0G1h_MKNVJIY8wz-10" value="" style="endArrow=none;html=1;rounded=0;strokeWidth=2;entryX=0.25;entryY=1;entryDx=0;entryDy=0;exitX=0.5;exitY=0;exitDx=0;exitDy=0;fontSize=15;" parent="1" source="NA8Jh0G1h_MKNVJIY8wz-3" target="NA8Jh0G1h_MKNVJIY8wz-1" edge="1">
          <mxGeometry relative="1" as="geometry">
            <mxPoint x="410" y="290" as="sourcePoint" />
            <mxPoint x="410" y="240" as="targetPoint" />
          </mxGeometry>
        </mxCell>
        <mxCell id="NA8Jh0G1h_MKNVJIY8wz-11" value="" style="endArrow=none;html=1;rounded=0;strokeWidth=2;entryX=0.75;entryY=1;entryDx=0;entryDy=0;exitX=0.5;exitY=0;exitDx=0;exitDy=0;fontSize=15;" parent="1" source="NA8Jh0G1h_MKNVJIY8wz-2" target="NA8Jh0G1h_MKNVJIY8wz-1" edge="1">
          <mxGeometry relative="1" as="geometry">
            <mxPoint x="420" y="300" as="sourcePoint" />
            <mxPoint x="420" y="250" as="targetPoint" />
          </mxGeometry>
        </mxCell>
      </root>
    </mxGraphModel>
  </diagram>
</mxfile>
